<mxfile host="app.diagrams.net" modified="2023-09-12T15:55:22.135Z" agent="Mozilla/5.0 (Windows NT 10.0; Win64; x64) AppleWebKit/537.36 (KHTML, like Gecko) Chrome/116.0.0.0 Safari/537.36" etag="DGdZD30K9Rjwx1ugNSav" version="21.7.4" type="onedrive">
  <diagram name="第 1 页" id="CzCccIUx3e4CXuVy6--4">
    <mxGraphModel grid="1" page="1" gridSize="10" guides="1" tooltips="1" connect="1" arrows="1" fold="1" pageScale="1" pageWidth="827" pageHeight="1169" math="0" shadow="0">
      <root>
        <mxCell id="0" />
        <mxCell id="1" parent="0" />
        <mxCell id="kbU7PfpbNfhYtXs_jSuM-3" value="location" style="ellipse;shape=doubleEllipse;whiteSpace=wrap;html=1;" vertex="1" parent="1">
          <mxGeometry x="-70" width="100" height="60" as="geometry" />
        </mxCell>
        <mxCell id="H8q2vEseMDckGCxMk7eY-14" style="edgeStyle=orthogonalEdgeStyle;rounded=0;orthogonalLoop=1;jettySize=auto;html=1;exitX=0.5;exitY=1;exitDx=0;exitDy=0;entryX=0.515;entryY=0.125;entryDx=0;entryDy=0;entryPerimeter=0;" edge="1" parent="1" source="kbU7PfpbNfhYtXs_jSuM-4" target="H8q2vEseMDckGCxMk7eY-13">
          <mxGeometry relative="1" as="geometry" />
        </mxCell>
        <mxCell id="kbU7PfpbNfhYtXs_jSuM-4" value="Departments" style="rounded=0;whiteSpace=wrap;html=1;" vertex="1" parent="1">
          <mxGeometry x="120" y="100" width="120" height="60" as="geometry" />
        </mxCell>
        <mxCell id="H8q2vEseMDckGCxMk7eY-10" style="edgeStyle=orthogonalEdgeStyle;rounded=0;orthogonalLoop=1;jettySize=auto;html=1;exitX=1;exitY=0.5;exitDx=0;exitDy=0;" edge="1" parent="1" source="kbU7PfpbNfhYtXs_jSuM-5" target="kbU7PfpbNfhYtXs_jSuM-4">
          <mxGeometry relative="1" as="geometry" />
        </mxCell>
        <mxCell id="kbU7PfpbNfhYtXs_jSuM-5" value="&lt;u&gt;manage employee&lt;/u&gt;" style="ellipse;whiteSpace=wrap;html=1;" vertex="1" parent="1">
          <mxGeometry x="-70" y="130" width="100" height="50" as="geometry" />
        </mxCell>
        <mxCell id="H8q2vEseMDckGCxMk7eY-11" style="edgeStyle=orthogonalEdgeStyle;rounded=0;orthogonalLoop=1;jettySize=auto;html=1;exitX=1;exitY=0.5;exitDx=0;exitDy=0;" edge="1" parent="1" source="kbU7PfpbNfhYtXs_jSuM-6" target="kbU7PfpbNfhYtXs_jSuM-4">
          <mxGeometry relative="1" as="geometry" />
        </mxCell>
        <mxCell id="kbU7PfpbNfhYtXs_jSuM-6" value="&lt;u&gt;number&lt;/u&gt;" style="ellipse;whiteSpace=wrap;html=1;" vertex="1" parent="1">
          <mxGeometry x="-70" y="190" width="100" height="50" as="geometry" />
        </mxCell>
        <mxCell id="H8q2vEseMDckGCxMk7eY-9" style="edgeStyle=orthogonalEdgeStyle;rounded=0;orthogonalLoop=1;jettySize=auto;html=1;exitX=1;exitY=0.5;exitDx=0;exitDy=0;" edge="1" parent="1" source="kbU7PfpbNfhYtXs_jSuM-11" target="kbU7PfpbNfhYtXs_jSuM-4">
          <mxGeometry relative="1" as="geometry" />
        </mxCell>
        <mxCell id="kbU7PfpbNfhYtXs_jSuM-11" value="&lt;u&gt;name&lt;/u&gt;" style="ellipse;whiteSpace=wrap;html=1;" vertex="1" parent="1">
          <mxGeometry x="-70" y="70" width="100" height="50" as="geometry" />
        </mxCell>
        <mxCell id="H8q2vEseMDckGCxMk7eY-8" style="edgeStyle=orthogonalEdgeStyle;rounded=0;orthogonalLoop=1;jettySize=auto;html=1;" edge="1" parent="1" source="kbU7PfpbNfhYtXs_jSuM-3" target="kbU7PfpbNfhYtXs_jSuM-4">
          <mxGeometry relative="1" as="geometry">
            <mxPoint x="30" y="35" as="sourcePoint" />
          </mxGeometry>
        </mxCell>
        <mxCell id="H8q2vEseMDckGCxMk7eY-46" style="edgeStyle=orthogonalEdgeStyle;rounded=0;orthogonalLoop=1;jettySize=auto;html=1;exitX=0.5;exitY=0;exitDx=0;exitDy=0;" edge="1" parent="1" source="H8q2vEseMDckGCxMk7eY-12" target="H8q2vEseMDckGCxMk7eY-13">
          <mxGeometry relative="1" as="geometry" />
        </mxCell>
        <mxCell id="H8q2vEseMDckGCxMk7eY-12" value="Projects" style="rounded=0;whiteSpace=wrap;html=1;" vertex="1" parent="1">
          <mxGeometry x="120" y="430" width="120" height="60" as="geometry" />
        </mxCell>
        <mxCell id="H8q2vEseMDckGCxMk7eY-13" value="controls" style="rhombus;whiteSpace=wrap;html=1;" vertex="1" parent="1">
          <mxGeometry x="140" y="260" width="80" height="80" as="geometry" />
        </mxCell>
        <mxCell id="H8q2vEseMDckGCxMk7eY-22" style="edgeStyle=orthogonalEdgeStyle;rounded=0;orthogonalLoop=1;jettySize=auto;html=1;exitX=1;exitY=0.5;exitDx=0;exitDy=0;" edge="1" parent="1" source="H8q2vEseMDckGCxMk7eY-19" target="H8q2vEseMDckGCxMk7eY-12">
          <mxGeometry relative="1" as="geometry" />
        </mxCell>
        <mxCell id="H8q2vEseMDckGCxMk7eY-19" value="&lt;u&gt;name&lt;/u&gt;" style="ellipse;whiteSpace=wrap;html=1;" vertex="1" parent="1">
          <mxGeometry x="-70" y="400" width="100" height="50" as="geometry" />
        </mxCell>
        <mxCell id="H8q2vEseMDckGCxMk7eY-23" style="edgeStyle=orthogonalEdgeStyle;rounded=0;orthogonalLoop=1;jettySize=auto;html=1;exitX=1;exitY=0.5;exitDx=0;exitDy=0;" edge="1" parent="1" source="H8q2vEseMDckGCxMk7eY-20" target="H8q2vEseMDckGCxMk7eY-12">
          <mxGeometry relative="1" as="geometry" />
        </mxCell>
        <mxCell id="H8q2vEseMDckGCxMk7eY-20" value="&lt;u&gt;number&lt;/u&gt;" style="ellipse;whiteSpace=wrap;html=1;" vertex="1" parent="1">
          <mxGeometry x="-70" y="460" width="100" height="50" as="geometry" />
        </mxCell>
        <mxCell id="H8q2vEseMDckGCxMk7eY-24" style="edgeStyle=orthogonalEdgeStyle;rounded=0;orthogonalLoop=1;jettySize=auto;html=1;exitX=1;exitY=0.5;exitDx=0;exitDy=0;" edge="1" parent="1" source="H8q2vEseMDckGCxMk7eY-21" target="H8q2vEseMDckGCxMk7eY-12">
          <mxGeometry relative="1" as="geometry" />
        </mxCell>
        <mxCell id="H8q2vEseMDckGCxMk7eY-21" value="location" style="ellipse;whiteSpace=wrap;html=1;" vertex="1" parent="1">
          <mxGeometry x="-70" y="520" width="100" height="50" as="geometry" />
        </mxCell>
        <mxCell id="H8q2vEseMDckGCxMk7eY-25" value="1" style="text;html=1;strokeColor=none;fillColor=none;align=center;verticalAlign=middle;whiteSpace=wrap;rounded=0;" vertex="1" parent="1">
          <mxGeometry x="170" y="170" width="60" height="30" as="geometry" />
        </mxCell>
        <mxCell id="H8q2vEseMDckGCxMk7eY-27" value="M" style="text;html=1;strokeColor=none;fillColor=none;align=center;verticalAlign=middle;whiteSpace=wrap;rounded=0;" vertex="1" parent="1">
          <mxGeometry x="170" y="400" width="60" height="30" as="geometry" />
        </mxCell>
        <mxCell id="H8q2vEseMDckGCxMk7eY-43" style="edgeStyle=orthogonalEdgeStyle;rounded=0;orthogonalLoop=1;jettySize=auto;html=1;exitX=0;exitY=0.5;exitDx=0;exitDy=0;" edge="1" parent="1" source="H8q2vEseMDckGCxMk7eY-28" target="H8q2vEseMDckGCxMk7eY-42">
          <mxGeometry relative="1" as="geometry" />
        </mxCell>
        <mxCell id="H8q2vEseMDckGCxMk7eY-52" style="edgeStyle=orthogonalEdgeStyle;rounded=0;orthogonalLoop=1;jettySize=auto;html=1;exitX=0;exitY=1;exitDx=0;exitDy=0;" edge="1" parent="1" source="H8q2vEseMDckGCxMk7eY-28" target="H8q2vEseMDckGCxMk7eY-51">
          <mxGeometry relative="1" as="geometry" />
        </mxCell>
        <mxCell id="H8q2vEseMDckGCxMk7eY-57" style="edgeStyle=orthogonalEdgeStyle;rounded=0;orthogonalLoop=1;jettySize=auto;html=1;exitX=0;exitY=0.5;exitDx=0;exitDy=0;entryX=0.5;entryY=1;entryDx=0;entryDy=0;" edge="1" parent="1" source="H8q2vEseMDckGCxMk7eY-28" target="H8q2vEseMDckGCxMk7eY-56">
          <mxGeometry relative="1" as="geometry" />
        </mxCell>
        <mxCell id="H8q2vEseMDckGCxMk7eY-28" value="Employee" style="rounded=0;whiteSpace=wrap;html=1;" vertex="1" parent="1">
          <mxGeometry x="540" y="100" width="120" height="60" as="geometry" />
        </mxCell>
        <mxCell id="H8q2vEseMDckGCxMk7eY-35" style="edgeStyle=orthogonalEdgeStyle;rounded=0;orthogonalLoop=1;jettySize=auto;html=1;exitX=0;exitY=0.5;exitDx=0;exitDy=0;" edge="1" parent="1" source="H8q2vEseMDckGCxMk7eY-29" target="H8q2vEseMDckGCxMk7eY-28">
          <mxGeometry relative="1" as="geometry" />
        </mxCell>
        <mxCell id="H8q2vEseMDckGCxMk7eY-29" value="name" style="ellipse;whiteSpace=wrap;html=1;" vertex="1" parent="1">
          <mxGeometry x="760" y="-20" width="100" height="50" as="geometry" />
        </mxCell>
        <mxCell id="H8q2vEseMDckGCxMk7eY-41" style="edgeStyle=orthogonalEdgeStyle;rounded=0;orthogonalLoop=1;jettySize=auto;html=1;exitX=0;exitY=0.5;exitDx=0;exitDy=0;entryX=0.5;entryY=1;entryDx=0;entryDy=0;" edge="1" parent="1" source="H8q2vEseMDckGCxMk7eY-30" target="H8q2vEseMDckGCxMk7eY-28">
          <mxGeometry relative="1" as="geometry" />
        </mxCell>
        <mxCell id="H8q2vEseMDckGCxMk7eY-30" value="ssnumber" style="ellipse;whiteSpace=wrap;html=1;" vertex="1" parent="1">
          <mxGeometry x="760" y="290" width="100" height="50" as="geometry" />
        </mxCell>
        <mxCell id="H8q2vEseMDckGCxMk7eY-39" style="edgeStyle=orthogonalEdgeStyle;rounded=0;orthogonalLoop=1;jettySize=auto;html=1;exitX=0;exitY=0.5;exitDx=0;exitDy=0;" edge="1" parent="1" source="H8q2vEseMDckGCxMk7eY-31" target="H8q2vEseMDckGCxMk7eY-28">
          <mxGeometry relative="1" as="geometry" />
        </mxCell>
        <mxCell id="H8q2vEseMDckGCxMk7eY-31" value="address" style="ellipse;whiteSpace=wrap;html=1;" vertex="1" parent="1">
          <mxGeometry x="760" y="225" width="100" height="50" as="geometry" />
        </mxCell>
        <mxCell id="H8q2vEseMDckGCxMk7eY-38" style="edgeStyle=orthogonalEdgeStyle;rounded=0;orthogonalLoop=1;jettySize=auto;html=1;exitX=0;exitY=0.5;exitDx=0;exitDy=0;" edge="1" parent="1" source="H8q2vEseMDckGCxMk7eY-32" target="H8q2vEseMDckGCxMk7eY-28">
          <mxGeometry relative="1" as="geometry" />
        </mxCell>
        <mxCell id="H8q2vEseMDckGCxMk7eY-32" value="salary" style="ellipse;whiteSpace=wrap;html=1;" vertex="1" parent="1">
          <mxGeometry x="760" y="160" width="100" height="50" as="geometry" />
        </mxCell>
        <mxCell id="H8q2vEseMDckGCxMk7eY-36" style="edgeStyle=orthogonalEdgeStyle;rounded=0;orthogonalLoop=1;jettySize=auto;html=1;exitX=0;exitY=0.5;exitDx=0;exitDy=0;" edge="1" parent="1" source="H8q2vEseMDckGCxMk7eY-33" target="H8q2vEseMDckGCxMk7eY-28">
          <mxGeometry relative="1" as="geometry" />
        </mxCell>
        <mxCell id="H8q2vEseMDckGCxMk7eY-33" value="sex" style="ellipse;whiteSpace=wrap;html=1;" vertex="1" parent="1">
          <mxGeometry x="760" y="40" width="100" height="50" as="geometry" />
        </mxCell>
        <mxCell id="H8q2vEseMDckGCxMk7eY-40" style="edgeStyle=orthogonalEdgeStyle;rounded=0;orthogonalLoop=1;jettySize=auto;html=1;exitX=0;exitY=0.5;exitDx=0;exitDy=0;" edge="1" parent="1" source="H8q2vEseMDckGCxMk7eY-34" target="H8q2vEseMDckGCxMk7eY-28">
          <mxGeometry relative="1" as="geometry" />
        </mxCell>
        <mxCell id="H8q2vEseMDckGCxMk7eY-34" value="birthdate" style="ellipse;whiteSpace=wrap;html=1;" vertex="1" parent="1">
          <mxGeometry x="760" y="100" width="100" height="50" as="geometry" />
        </mxCell>
        <mxCell id="H8q2vEseMDckGCxMk7eY-44" style="edgeStyle=orthogonalEdgeStyle;rounded=0;orthogonalLoop=1;jettySize=auto;html=1;exitX=0;exitY=0.5;exitDx=0;exitDy=0;entryX=1;entryY=0.5;entryDx=0;entryDy=0;" edge="1" parent="1" source="H8q2vEseMDckGCxMk7eY-42" target="kbU7PfpbNfhYtXs_jSuM-4">
          <mxGeometry relative="1" as="geometry" />
        </mxCell>
        <mxCell id="H8q2vEseMDckGCxMk7eY-42" value="assign" style="rhombus;whiteSpace=wrap;html=1;" vertex="1" parent="1">
          <mxGeometry x="320" y="130" width="80" height="80" as="geometry" />
        </mxCell>
        <mxCell id="H8q2vEseMDckGCxMk7eY-47" value="1" style="text;html=1;strokeColor=none;fillColor=none;align=center;verticalAlign=middle;whiteSpace=wrap;rounded=0;" vertex="1" parent="1">
          <mxGeometry x="240" y="100" width="60" height="30" as="geometry" />
        </mxCell>
        <mxCell id="H8q2vEseMDckGCxMk7eY-48" value="M" style="text;html=1;strokeColor=none;fillColor=none;align=center;verticalAlign=middle;whiteSpace=wrap;rounded=0;" vertex="1" parent="1">
          <mxGeometry x="480" y="100" width="60" height="30" as="geometry" />
        </mxCell>
        <mxCell id="H8q2vEseMDckGCxMk7eY-53" style="edgeStyle=orthogonalEdgeStyle;rounded=0;orthogonalLoop=1;jettySize=auto;html=1;exitX=0;exitY=1;exitDx=0;exitDy=0;entryX=1;entryY=0.5;entryDx=0;entryDy=0;" edge="1" parent="1" source="H8q2vEseMDckGCxMk7eY-51" target="H8q2vEseMDckGCxMk7eY-12">
          <mxGeometry relative="1" as="geometry" />
        </mxCell>
        <mxCell id="H8q2vEseMDckGCxMk7eY-51" value="worlk" style="rhombus;whiteSpace=wrap;html=1;" vertex="1" parent="1">
          <mxGeometry x="380" y="330" width="80" height="80" as="geometry" />
        </mxCell>
        <mxCell id="H8q2vEseMDckGCxMk7eY-55" style="edgeStyle=orthogonalEdgeStyle;rounded=0;orthogonalLoop=1;jettySize=auto;html=1;exitX=0;exitY=0.5;exitDx=0;exitDy=0;" edge="1" parent="1" source="H8q2vEseMDckGCxMk7eY-54" target="H8q2vEseMDckGCxMk7eY-51">
          <mxGeometry relative="1" as="geometry" />
        </mxCell>
        <mxCell id="H8q2vEseMDckGCxMk7eY-54" value="hours" style="ellipse;whiteSpace=wrap;html=1;" vertex="1" parent="1">
          <mxGeometry x="500" y="470" width="100" height="50" as="geometry" />
        </mxCell>
        <mxCell id="H8q2vEseMDckGCxMk7eY-58" style="edgeStyle=orthogonalEdgeStyle;rounded=0;orthogonalLoop=1;jettySize=auto;html=1;exitX=1;exitY=0.5;exitDx=0;exitDy=0;entryX=0.5;entryY=0;entryDx=0;entryDy=0;" edge="1" parent="1" source="H8q2vEseMDckGCxMk7eY-56" target="H8q2vEseMDckGCxMk7eY-28">
          <mxGeometry relative="1" as="geometry" />
        </mxCell>
        <mxCell id="H8q2vEseMDckGCxMk7eY-56" value="supervise" style="rhombus;whiteSpace=wrap;html=1;" vertex="1" parent="1">
          <mxGeometry x="480" y="-170" width="80" height="80" as="geometry" />
        </mxCell>
        <mxCell id="H8q2vEseMDckGCxMk7eY-60" style="edgeStyle=orthogonalEdgeStyle;rounded=0;orthogonalLoop=1;jettySize=auto;html=1;exitX=1;exitY=1;exitDx=0;exitDy=0;entryX=0.135;entryY=0.438;entryDx=0;entryDy=0;entryPerimeter=0;" edge="1" parent="1" source="H8q2vEseMDckGCxMk7eY-59" target="H8q2vEseMDckGCxMk7eY-56">
          <mxGeometry relative="1" as="geometry" />
        </mxCell>
        <mxCell id="H8q2vEseMDckGCxMk7eY-59" value="direct supervisor" style="ellipse;whiteSpace=wrap;html=1;" vertex="1" parent="1">
          <mxGeometry x="330" y="-210" width="100" height="50" as="geometry" />
        </mxCell>
      </root>
    </mxGraphModel>
  </diagram>
</mxfile>
